<svg xmlns="http://www.w3.org/2000/svg" xmlns:xlink="http://www.w3.org/1999/xlink" version="1.1" id="Layer_2" x="0px" y="0px" width="100px" height="22.2222222222px" viewBox="0 0 324 72" enable-background="new 0 0 324 72" xml:space="preserve">
<path fill-rule="evenodd" clip-rule="evenodd" d="M119.331,11.072H20.779c-0.401,0-0.725,0.301-0.725,0.673v4.813h100v-4.813  C120.055,11.373,119.731,11.072,119.331,11.072z"/>
<path fill-rule="evenodd" clip-rule="evenodd" d="M20.055,17.856v44.899c0,0.37,0.323,0.673,0.725,0.673h98.551  c0.401,0,0.724-0.303,0.724-0.673V17.856H20.055z M92.49,34.936c0.304-0.055,0.617-0.088,0.938-0.088  c2.874,0,5.204,2.33,5.204,5.203c0,2.875-2.33,5.204-5.204,5.204c-0.32,0-0.633-0.033-0.938-0.088V34.936z M27.343,53.468  c-2.87-3.232-4.681-7.868-4.681-13.04c0-5.169,1.812-9.806,4.681-13.038h8.14c-3.969,2.81-6.566,7.429-6.566,12.661  c0,5.736,3.119,10.729,7.745,13.417H27.343z M46.016,45.009c-0.499,0.159-1.031,0.246-1.583,0.246c-2.874,0-5.204-2.329-5.204-5.204  c0-2.873,2.331-5.203,5.204-5.203c0.552,0,1.084,0.087,1.583,0.247V45.009z M87.648,50.184c0,0.294-0.239,0.531-0.533,0.531H51.463  c-0.294,0-0.533-0.237-0.533-0.531V30.567c0-0.294,0.239-0.531,0.533-0.531h35.652c0.294,0,0.533,0.237,0.533,0.531V50.184z   M111.163,53.468h-18.5c-0.097,0-0.174-0.15-0.174-0.336v-2.1c0.31,0.026,0.621,0.047,0.938,0.047  c6.091,0,11.027-4.938,11.027-11.028c0-6.09-4.937-11.027-11.027-11.027c-0.316,0-0.628,0.021-0.938,0.048v-1.346  c0-0.186,0.077-0.335,0.174-0.335h18.5c2.87,3.232,4.682,7.869,4.682,13.038C115.845,45.6,114.033,50.235,111.163,53.468z"/>
</svg>